<svg id="visual" viewBox="0 0 900 600" width="900" height="600" xmlns="http://www.w3.org/2000/svg" xmlns:xlink="http://www.w3.org/1999/xlink" version="1.1"><rect x="0" y="0" width="900" height="600" fill="#151718"></rect><path d="M0 433L21.5 438.8C43 444.7 86 456.3 128.8 463.3C171.7 470.3 214.3 472.7 257.2 462.3C300 452 343 429 385.8 421.2C428.7 413.3 471.3 420.7 514.2 430C557 439.3 600 450.7 642.8 458.2C685.7 465.7 728.3 469.3 771.2 467.3C814 465.3 857 457.7 878.5 453.8L900 450L900 601L878.5 601C857 601 814 601 771.2 601C728.3 601 685.7 601 642.8 601C600 601 557 601 514.2 601C471.3 601 428.7 601 385.8 601C343 601 300 601 257.2 601C214.3 601 171.7 601 128.8 601C86 601 43 601 21.5 601L0 601Z" fill="#4180df"></path><path d="M0 487L21.5 489.7C43 492.3 86 497.7 128.8 493.3C171.7 489 214.3 475 257.2 469.5C300 464 343 467 385.8 472.8C428.7 478.7 471.3 487.3 514.2 487.8C557 488.3 600 480.7 642.8 481.8C685.7 483 728.3 493 771.2 487.8C814 482.7 857 462.3 878.5 452.2L900 442L900 601L878.5 601C857 601 814 601 771.2 601C728.3 601 685.7 601 642.8 601C600 601 557 601 514.2 601C471.3 601 428.7 601 385.8 601C343 601 300 601 257.2 601C214.3 601 171.7 601 128.8 601C86 601 43 601 21.5 601L0 601Z" fill="#3177c6"></path><path d="M0 498L21.5 496C43 494 86 490 128.8 487.3C171.7 484.7 214.3 483.3 257.2 487.5C300 491.7 343 501.3 385.8 501.3C428.7 501.3 471.3 491.7 514.2 487.3C557 483 600 484 642.8 485.2C685.7 486.3 728.3 487.7 771.2 485.5C814 483.3 857 477.7 878.5 474.8L900 472L900 601L878.5 601C857 601 814 601 771.2 601C728.3 601 685.7 601 642.8 601C600 601 557 601 514.2 601C471.3 601 428.7 601 385.8 601C343 601 300 601 257.2 601C214.3 601 171.7 601 128.8 601C86 601 43 601 21.5 601L0 601Z" fill="#296dad"></path><path d="M0 543L21.5 544.5C43 546 86 549 128.8 546.2C171.7 543.3 214.3 534.7 257.2 531.3C300 528 343 530 385.8 529C428.7 528 471.3 524 514.2 523.7C557 523.3 600 526.7 642.8 530C685.7 533.3 728.3 536.7 771.2 536.5C814 536.3 857 532.7 878.5 530.8L900 529L900 601L878.5 601C857 601 814 601 771.2 601C728.3 601 685.7 601 642.8 601C600 601 557 601 514.2 601C471.3 601 428.7 601 385.8 601C343 601 300 601 257.2 601C214.3 601 171.7 601 128.8 601C86 601 43 601 21.5 601L0 601Z" fill="#286294"></path><path d="M0 549L21.5 547.7C43 546.3 86 543.7 128.8 547.5C171.7 551.3 214.3 561.7 257.2 563.3C300 565 343 558 385.8 553.2C428.7 548.3 471.3 545.7 514.2 549.8C557 554 600 565 642.8 566.8C685.7 568.7 728.3 561.3 771.2 557.7C814 554 857 554 878.5 554L900 554L900 601L878.5 601C857 601 814 601 771.2 601C728.3 601 685.7 601 642.8 601C600 601 557 601 514.2 601C471.3 601 428.7 601 385.8 601C343 601 300 601 257.2 601C214.3 601 171.7 601 128.8 601C86 601 43 601 21.5 601L0 601Z" fill="#2b577b"></path></svg>