<svg id="visual" viewBox="0 0 900 600" width="900" height="600" xmlns="http://www.w3.org/2000/svg" xmlns:xlink="http://www.w3.org/1999/xlink" version="1.1"><rect x="0" y="0" width="900" height="600" fill="#080808"></rect><path d="M0 432L21.5 426.7C43 421.3 86 410.7 128.8 413.5C171.7 416.3 214.3 432.7 257.2 440.5C300 448.3 343 447.7 385.8 443.2C428.7 438.7 471.3 430.3 514.2 431.2C557 432 600 442 642.8 440.5C685.7 439 728.3 426 771.2 427C814 428 857 443 878.5 450.5L900 458L900 601L878.5 601C857 601 814 601 771.2 601C728.3 601 685.7 601 642.8 601C600 601 557 601 514.2 601C471.3 601 428.7 601 385.8 601C343 601 300 601 257.2 601C214.3 601 171.7 601 128.8 601C86 601 43 601 21.5 601L0 601Z" fill="#1037c4"></path><path d="M0 475L21.5 474.3C43 473.7 86 472.3 128.8 477C171.7 481.7 214.3 492.3 257.2 490.5C300 488.7 343 474.3 385.8 474.2C428.7 474 471.3 488 514.2 487.5C557 487 600 472 642.8 472C685.7 472 728.3 487 771.2 486.3C814 485.7 857 469.3 878.5 461.2L900 453L900 601L878.5 601C857 601 814 601 771.2 601C728.3 601 685.7 601 642.8 601C600 601 557 601 514.2 601C471.3 601 428.7 601 385.8 601C343 601 300 601 257.2 601C214.3 601 171.7 601 128.8 601C86 601 43 601 21.5 601L0 601Z" fill="#004dcb"></path><path d="M0 497L21.5 497.7C43 498.3 86 499.7 128.8 497.5C171.7 495.3 214.3 489.7 257.2 492.8C300 496 343 508 385.8 505.8C428.7 503.7 471.3 487.3 514.2 482.3C557 477.3 600 483.7 642.8 488.2C685.7 492.7 728.3 495.3 771.2 494C814 492.7 857 487.3 878.5 484.7L900 482L900 601L878.5 601C857 601 814 601 771.2 601C728.3 601 685.7 601 642.8 601C600 601 557 601 514.2 601C471.3 601 428.7 601 385.8 601C343 601 300 601 257.2 601C214.3 601 171.7 601 128.8 601C86 601 43 601 21.5 601L0 601Z" fill="#0061cf"></path><path d="M0 510L21.5 512.5C43 515 86 520 128.8 525.5C171.7 531 214.3 537 257.2 541.3C300 545.7 343 548.3 385.8 544.5C428.7 540.7 471.3 530.3 514.2 529C557 527.7 600 535.3 642.8 534.5C685.7 533.7 728.3 524.3 771.2 523.2C814 522 857 529 878.5 532.5L900 536L900 601L878.5 601C857 601 814 601 771.2 601C728.3 601 685.7 601 642.8 601C600 601 557 601 514.2 601C471.3 601 428.7 601 385.8 601C343 601 300 601 257.2 601C214.3 601 171.7 601 128.8 601C86 601 43 601 21.5 601L0 601Z" fill="#0073d0"></path><path d="M0 560L21.5 560.5C43 561 86 562 128.8 562.5C171.7 563 214.3 563 257.2 564.5C300 566 343 569 385.8 569.2C428.7 569.3 471.3 566.7 514.2 566.2C557 565.7 600 567.3 642.8 563.3C685.7 559.3 728.3 549.7 771.2 545.7C814 541.7 857 543.3 878.5 544.2L900 545L900 601L878.5 601C857 601 814 601 771.2 601C728.3 601 685.7 601 642.8 601C600 601 557 601 514.2 601C471.3 601 428.7 601 385.8 601C343 601 300 601 257.2 601C214.3 601 171.7 601 128.8 601C86 601 43 601 21.5 601L0 601Z" fill="#2983cd"></path></svg>