<svg id="visual" viewBox="0 0 900 600" width="900" height="600" xmlns="http://www.w3.org/2000/svg" xmlns:xlink="http://www.w3.org/1999/xlink" version="1.1"><rect x="0" y="0" width="900" height="600" fill="#dee9e9"></rect><path d="M0 410L21.5 424.7C43 439.3 86 468.7 128.8 476.2C171.7 483.7 214.3 469.3 257.2 456.8C300 444.3 343 433.7 385.8 440.8C428.7 448 471.3 473 514.2 487.2C557 501.3 600 504.7 642.8 496.7C685.7 488.7 728.3 469.3 771.2 460.3C814 451.3 857 452.7 878.5 453.3L900 454L900 601L878.5 601C857 601 814 601 771.2 601C728.3 601 685.7 601 642.8 601C600 601 557 601 514.2 601C471.3 601 428.7 601 385.8 601C343 601 300 601 257.2 601C214.3 601 171.7 601 128.8 601C86 601 43 601 21.5 601L0 601Z" fill="#a9cdeb" stroke-linecap="round" stroke-linejoin="miter"></path></svg>