<svg id="visual" viewBox="0 0 900 600" width="900" height="600" xmlns="http://www.w3.org/2000/svg" xmlns:xlink="http://www.w3.org/1999/xlink" version="1.1"><rect x="0" y="0" width="900" height="600" fill="#1f2d34"></rect><path d="M0 403L21.5 415.8C43 428.7 86 454.3 128.8 472.8C171.7 491.3 214.3 502.7 257.2 508C300 513.3 343 512.7 385.8 496.8C428.7 481 471.3 450 514.2 448C557 446 600 473 642.8 481.3C685.7 489.7 728.3 479.3 771.2 462.8C814 446.3 857 423.7 878.5 412.3L900 401L900 601L878.5 601C857 601 814 601 771.2 601C728.3 601 685.7 601 642.8 601C600 601 557 601 514.2 601C471.3 601 428.7 601 385.8 601C343 601 300 601 257.2 601C214.3 601 171.7 601 128.8 601C86 601 43 601 21.5 601L0 601Z" fill="#b82ca7" stroke-linecap="round" stroke-linejoin="miter"></path></svg>